<?xml version="1.0" encoding="utf-8"?>
<!-- Generator: Adobe Illustrator 18.1.1, SVG Export Plug-In . SVG Version: 6.00 Build 0)  -->
<svg version="1.1" id="Layer_1" xmlns="http://www.w3.org/2000/svg" xmlns:xlink="http://www.w3.org/1999/xlink" x="0px" y="0px"
	 viewBox="0 0 99 99" enable-background="new 0 0 99 99" xml:space="preserve">
<g>
	<path fill="#FFDE05" stroke="#FFDE05" stroke-width="4" d="M61.1,73.8h-6.6v-12H42.9v12h-6.6V45.5h6.6v11.8h11.5V45.5h6.6V73.8z"/>
</g>
<path fill="none" stroke="#D44B31" stroke-width="5" d="M58,32.6l8.1-8.5l0,0c4.2-4.5,11.7-2.7,13.4,3.2l0,0L83.3,40
	c1.3,0.5,6.1,8.4,6.1,17.8c0,19-18.3,28.8-40.8,28.8S7.8,76.9,7.8,57.9c0-8.5,4.8-17.3,6.2-18.1l3.7-12.5l0,0
	c1.7-5.9,9.2-7.7,13.4-3.2l0,0l8.5,8.9"/>
<path fill="#EC2134" stroke="#FFFFFF" stroke-width="3" d="M32.5,26.4"/>
<path fill="none" stroke="#3A4EA1" stroke-width="3" d="M87,43.3"/>
<path fill="none" stroke="#FFFFFF" stroke-width="3" d="M21.6,36.2"/>
<path fill="none" stroke="#FFFFFF" stroke-width="3" d="M21.6,36.2"/>
<path fill="none" stroke="#FFFFFF" stroke-width="3" d="M10.1,43.3"/>
<path fill="none" stroke="#FFFFFF" stroke-width="3" d="M87,43.3"/>
<path fill="#FFDE05" d="M50.7,32"/>
<polyline fill="#FFDE05" points="49.5,22.4 54.5,7.8 44.6,13.9 40,29.2 47,25.9 43,39 48.8,36 45.3,46.1 49.1,45 56.7,28.9 51,31.4 
	57.1,18.6 49.5,22.4 "/>
</svg>
