<?xml version="1.0" encoding="utf-8"?>
<!-- Generator: Adobe Illustrator 18.1.1, SVG Export Plug-In . SVG Version: 6.00 Build 0)  -->
<svg version="1.1" id="Layer_3" xmlns="http://www.w3.org/2000/svg" xmlns:xlink="http://www.w3.org/1999/xlink" x="0px" y="0px"
	 viewBox="0 0 163.3 119.5" enable-background="new 0 0 163.3 119.5" xml:space="preserve">
<path fill="#FFFFFF" stroke="#FFFFFF" stroke-width="3" d="M12.6,45.2c0.3-0.4,0.7-0.7,1-1.1"/>
<path fill="none" stroke="#FFFFFF" stroke-width="3" d="M150.7,45.2c6.1,6.7,9.6,14.4,9.6,22.6c0,26.1-35.2,47.2-78.7,47.2
	S3,93.9,3,67.9c0-8.2,4-16.5,10.1-23.2"/>
<path fill="none" stroke="#394DA1" stroke-width="3" d="M150.7,45.2"/>
<polyline fill="#FFFFFF" stroke="#FFFFFF" stroke-width="3" points="12.5,45.2 54.9,24 24.7,6.2 12.5,45.2 "/>
<polyline fill="#FFFFFF" stroke="#FFFFFF" stroke-width="3" points="150.7,45.2 108.3,24 138.5,6.2 150.7,45.2 "/>
<path fill="#FFDE0B" d="M81.7,80c-1.2,3.2-4.5,6-9.1,8c2.4,3.1,5.6,5,9.2,5c3.6,0,6.8-1.9,9.2-4.9C86.3,86,82.9,83.2,81.7,80z"/>
<path fill="#FFFFFF" stroke="#FFFFFF" d="M108.6,64.3c-13.3,0-24.4,4.9-26.8,11.3c-2.4-6.5-13.5-11.3-26.8-11.3
	c-15.1,0-27.3,6.3-27.3,14s12.2,14,27.3,14c13.3,0,24.4-4.9,26.8-11.3c2.4,6.5,13.5,11.3,26.8,11.3c15.1,0,27.3-6.3,27.3-14
	S123.7,64.3,108.6,64.3z"/>
<path fill="#FFFFFF" d="M54.9,61.4c5.7,0,10.9,0.9,15.3,2.4c-2.2-7.7-9.4-13.4-17.9-13.4c-9.5,0-17.3,7-18.5,16.1
	C38.7,63.4,46.4,61.4,54.9,61.4z"/>
<path fill="#FFFFFF" d="M81.7,71c2.6-3.4,4.4-4.5,9-6.5c-2.4-2.9-5.5-4.7-8.9-4.7c-3.5,0-6.6,1.8-9,4.7C77.3,66.6,79.1,67.7,81.7,71
	z"/>
<path fill="#FFFFFF" d="M108.6,61.4c8.6,0,16.3,2.1,21.4,5.3c-1.1-9.2-9-16.3-18.5-16.3c-8.5,0-15.7,5.6-17.9,13.3
	C97.8,62.3,103,61.4,108.6,61.4z"/>
<path fill="#FFFFFF" d="M91.5,2.5l-0.9,18.8H72.9L72,2.5H57.7L65,48.3h9.2l-0.6-12.8h16.3l-0.6,12.8h9.2l7.3-45.8H91.5z M73.3,30.5
	l-0.1-3h17.1l-0.1,3H73.3z"/>
</svg>
