<?xml version="1.0" encoding="utf-8"?>
<!-- Generator: Adobe Illustrator 18.1.1, SVG Export Plug-In . SVG Version: 6.00 Build 0)  -->
<svg version="1.1" id="Layer_1" xmlns="http://www.w3.org/2000/svg" xmlns:xlink="http://www.w3.org/1999/xlink" x="0px" y="0px"
	 viewBox="0 0 99 99" enable-background="new 0 0 99 99" xml:space="preserve">
<g>
	<path fill="#FFDE05" stroke="#FFDE05" stroke-width="4" d="M62.1,74.7h-6.6v-12H43.9v12h-6.6V46.4h6.6v11.8h11.5V46.4h6.6V74.7z"/>
</g>
<path fill="none" stroke="#FFFFFF" stroke-width="4" d="M59.1,33.5l8.1-8.5l0,0c4.2-4.5,11.7-2.7,13.4,3.2l0,0l3.8,12.7
	c1.3,0.5,6.1,8.4,6.1,17.8c0,19-18.3,28.8-40.8,28.8S8.8,77.8,8.8,58.7c0-8.5,4.8-17.3,6.2-18.1l3.7-12.5l0,0
	c1.7-5.9,9.2-7.7,13.4-3.2l0,0l8.5,8.9"/>
<path fill="#EC2134" stroke="#FFFFFF" stroke-width="3" d="M33.5,27.2"/>
<path fill="none" stroke="#3A4EA1" stroke-width="3" d="M88.1,44.2"/>
<path fill="none" stroke="#FFFFFF" stroke-width="3" d="M22.6,37"/>
<path fill="none" stroke="#FFFFFF" stroke-width="3" d="M22.6,37"/>
<path fill="none" stroke="#FFFFFF" stroke-width="3" d="M11.1,44.2"/>
<path fill="none" stroke="#FFFFFF" stroke-width="3" d="M88.1,44.2"/>
<path fill="#FFDE05" d="M51.7,32.8"/>
<polyline fill="#FFDE05" points="50.5,23.3 55.5,8.7 45.6,14.8 41,30 48,26.8 44,39.8 49.8,36.9 46.4,46.9 50.1,45.9 57.7,29.8 
	52,32.3 58.1,19.5 50.5,23.3 "/>
</svg>
